<svg width="51" height="68" viewBox="0 0 51 68" fill="none" xmlns="http://www.w3.org/2000/svg">
<path d="M38.52 56.8403C26.1958 56.8403 25.4983 65.1152 25.4983 65.1152C25.4983 65.1152 24.8007 56.8403 12.4765 56.8403C0.152346 56.8403 0 49.1868 0 49.1868V51.2274C0 51.2274 0.156355 58.8809 12.4765 58.8809C24.7966 58.8809 25.4983 67.1558 25.4983 67.1558C25.4983 67.1558 26.1958 58.8809 38.52 58.8809C50.8441 58.8809 50.9965 51.2274 50.9965 51.2274V49.1868C50.9965 49.1868 50.8401 56.8403 38.52 56.8403Z" fill="#263452"/>
<path d="M38.52 52.811C26.1958 52.811 25.4983 61.0859 25.4983 61.0859C25.4983 61.0859 24.8007 52.811 12.4765 52.811C0.152346 52.811 0 45.1575 0 45.1575V47.1981C0 47.1981 0.156355 54.8516 12.4765 54.8516C24.7966 54.8516 25.4983 63.1265 25.4983 63.1265C25.4983 63.1265 26.1958 54.8516 38.52 54.8516C50.8441 54.8516 50.9965 47.1981 50.9965 47.1981V45.1575C50.9965 45.1575 50.8401 52.811 38.52 52.811Z" fill="#263452"/>
<path d="M15.6397 51.027C14.6815 50.8947 13.6311 50.8226 12.4765 50.8226C0.152346 50.8226 0 43.1651 0 43.1651V41.1284C0 41.1284 0.152346 48.7819 12.4765 48.7819C12.693 48.7819 12.9095 48.7859 13.118 48.7899C13.8837 49.6118 14.7297 50.3615 15.6397 51.027Z" fill="#263452"/>
<path d="M23.7975 53.1477C21.6125 52.5944 19.6239 51.2995 17.9922 49.4673C20.9109 50.2932 22.703 51.7365 23.7975 53.1477Z" fill="#263452"/>
<path d="M26.3471 54.4787C26.8643 54.4787 27.3775 54.4507 27.8867 54.4026C25.7057 56.6397 25.4972 59.0973 25.4972 59.0973C25.4972 59.0973 25.2767 56.4633 22.8672 54.166C23.4445 54.2783 24.0258 54.3585 24.6112 54.4106C25.397 55.8779 25.4972 57.0566 25.4972 57.0566C25.4972 57.0566 25.5934 55.914 26.3471 54.4787Z" fill="#263452"/>
<path d="M34.7375 49.0825C32.6487 51.5882 29.9465 53.1638 27.0078 53.4124C28.2627 51.6604 30.5599 49.7921 34.7375 49.0825Z" fill="#263452"/>
<path d="M50.996 41.1284V43.1651C50.996 43.1651 50.8436 50.8226 38.5195 50.8226C37.9903 50.8226 37.4851 50.8386 37 50.8667C37.8299 50.2412 38.6077 49.5396 39.3133 48.7699C50.8516 48.4491 50.996 41.1284 50.996 41.1284Z" fill="#263452"/>
<path d="M37.3132 44.7807C37.0045 45.5224 36.6557 46.228 36.2668 46.8935C34.3144 47.0739 32.7147 47.4869 31.4037 48.0361C29.7279 48.7417 28.5212 49.6678 27.6632 50.614C26.7571 51.6083 26.2239 52.6306 25.9192 53.4445C25.6265 53.4365 25.3379 53.4164 25.0532 53.3803C24.6724 52.4061 23.9708 51.1352 22.6999 49.9806C21.7818 49.1466 20.567 48.3689 18.9553 47.7875C18.1535 47.5029 17.2554 47.2623 16.2451 47.09C15.1306 46.9015 13.8797 46.7933 12.4765 46.7933C12.1397 46.7933 11.811 46.7933 11.4943 46.7772C0.144335 46.3803 0 39.1358 0 39.1358V37.0991C0 37.0991 0.132306 43.7904 10.2274 44.6604C10.929 44.7205 11.6787 44.7526 12.4765 44.7526C13.4227 44.7526 14.3047 44.8007 15.1185 44.8929C16.5979 45.0573 17.8648 45.358 18.9553 45.7469C20.567 46.3282 21.7818 47.106 22.6999 47.9399C25.2617 50.2692 25.4983 53.0275 25.4983 53.0275C25.4983 53.0275 25.6907 50.7423 27.6632 48.5733C28.3728 47.7875 29.323 47.0178 30.5819 46.3763C30.8425 46.244 31.1151 46.1157 31.3997 45.9995C32.9393 45.35 34.8717 44.8929 37.3092 44.7807H37.3132Z" fill="#263452"/>
<path d="M50.9955 37.0991V39.1358C50.9955 39.1358 50.8591 45.7389 40.9766 46.681C41.4537 45.9834 41.8826 45.2497 42.2555 44.48C50.8712 43.1169 50.9955 37.0991 50.9955 37.0991Z" fill="#263452"/>
<path d="M8.71191 40.4467C8.87628 41.1723 9.08074 41.882 9.33332 42.5755C0.124284 41.4009 0 35.1105 0 35.1105V33.0698C0 33.0698 0.120279 39.0755 8.71191 40.4467Z" fill="#263452"/>
<path d="M50.9962 33.0698V35.1105C50.9962 35.1105 50.8439 42.764 38.5197 42.764C26.1955 42.764 25.498 51.0389 25.498 51.0389C25.498 51.0389 24.8725 43.634 14.3725 42.8361C14.1681 42.1666 13.9957 41.473 13.8594 40.7634C24.8525 41.3568 25.498 48.9982 25.498 48.9982C25.498 48.9982 26.1955 40.7273 38.5197 40.7273C50.8439 40.7273 50.9962 33.0698 50.9962 33.0698Z" fill="#263452"/>
<path d="M50.9965 29.0405V31.0812C50.9965 31.0812 50.8401 38.7347 38.52 38.7347C26.1998 38.7347 25.4983 47.0096 25.4983 47.0096C25.4983 47.0096 25.2617 44.2513 22.6999 41.922C21.7818 41.0881 20.567 40.3103 18.9553 39.7289C17.504 39.2078 15.736 38.8469 13.571 38.7587C13.2182 38.7427 12.8534 38.7347 12.4765 38.7347C10.929 38.7347 9.56986 38.6144 8.38315 38.4019C0.116267 36.9306 0 31.0812 0 31.0812V29.0405C0 29.0405 0.116267 34.8538 8.29495 36.3492C9.50572 36.5697 10.8889 36.698 12.4765 36.698C12.8133 36.698 13.142 36.706 13.4628 36.7141C15.6758 36.7983 17.4799 37.1631 18.9553 37.6923C20.567 38.2736 21.7818 39.0514 22.6999 39.8853C25.2617 42.2146 25.4983 44.9689 25.4983 44.9689C25.4983 44.9689 26.1958 36.698 38.52 36.698C50.8441 36.698 50.9965 29.0405 50.9965 29.0405Z" fill="#263452"/>
<path d="M8.78808 32.4045C8.62772 33.054 8.50743 33.7115 8.42725 34.385C0.116261 32.9257 0 27.0523 0 27.0523V25.0156C0 25.0156 0.12028 31.0574 8.78808 32.4045Z" fill="#263452"/>
<path d="M50.9966 25.0156V27.0523C50.9966 27.0523 50.8443 34.7098 38.5201 34.7098C26.196 34.7098 25.4984 42.9847 25.4984 42.9847C25.4984 42.9847 24.8409 35.1909 13.5391 34.7298C13.5952 34.0442 13.6834 33.3667 13.7997 32.7052C24.8529 33.2705 25.4984 40.944 25.4984 40.944C25.4984 40.944 26.196 32.6691 38.5201 32.6691C50.8443 32.6691 50.9966 25.0156 50.9966 25.0156Z" fill="#263452"/>
<path d="M38.1191 30.6845C26.1798 30.8609 25.4983 38.9554 25.4983 38.9554C25.4983 38.9554 25.2617 36.1971 22.6999 33.8678C21.7818 33.0339 20.567 32.2561 18.9553 31.6747C17.6603 31.2097 16.1088 30.8729 14.2486 30.7406C13.6873 30.7005 13.0979 30.6805 12.4765 30.6805C11.3379 30.6805 10.3035 30.6163 9.36139 30.4961C0.124286 29.3294 0 23.023 0 23.023V20.9863C0 20.9863 0.132307 27.6696 10.2033 28.5476C10.9089 28.6077 11.6667 28.6398 12.4765 28.6398C13.3465 28.6398 14.1604 28.6799 14.9141 28.7561C16.4817 28.9164 17.8167 29.2252 18.9553 29.6341C20.567 30.2154 21.7818 30.9932 22.6999 31.8271C25.2617 34.1564 25.4983 36.9147 25.4983 36.9147C25.4983 36.9147 26.1558 29.1329 37.4335 28.6639C37.6981 29.3134 37.9266 29.9869 38.1191 30.6845Z" fill="#263452"/>
<path d="M50.9977 20.9863V23.023C50.9977 23.023 50.8814 28.708 42.9713 30.2796C42.7388 29.606 42.39 28.9044 42.1094 28.3912C50.8734 27.0722 50.9977 20.9863 50.9977 20.9863Z" fill="#263452"/>
<path d="M12.4765 24.6148C12.6168 24.6148 12.7531 24.6148 12.8894 24.6188C12.3201 25.2522 11.7949 25.9258 11.3219 26.6314C0.144326 26.1663 0 18.9979 0 18.9979V16.9573C0 16.9573 0.152346 24.6148 12.4765 24.6148Z" fill="#263452"/>
<path d="M36.5286 26.7273C26.1169 27.5653 25.4954 34.9261 25.4954 34.9261C25.4954 34.9261 24.9302 28.1987 15.7812 26.8757C16.126 26.2302 16.5029 25.6168 16.9118 25.0395C24.9743 26.7274 25.4954 32.8894 25.4954 32.8894C25.4954 32.8894 26.0688 26.1059 35.3219 24.823C35.7589 25.4164 36.1598 26.0498 36.5286 26.7273Z" fill="#263452"/>
<path d="M50.9957 16.9573V18.9979C50.9957 18.9979 50.8634 25.597 40.9808 26.5392C40.5117 25.8536 39.9986 25.2041 39.4453 24.5987C50.8514 24.2259 50.9957 16.9573 50.9957 16.9573Z" fill="#263452"/>
<path d="M33.8493 23.0992C32.9392 23.3037 32.1254 23.5683 31.4037 23.869C29.7279 24.5706 28.5212 25.4967 27.6632 26.4429C25.6907 28.6118 25.4983 30.897 25.4983 30.897C25.4983 30.897 25.2617 28.1387 22.6999 25.8094C21.7818 24.9755 20.567 24.1977 18.9553 23.6164C18.7308 23.5362 18.5023 23.46 18.2657 23.3879C17.2715 23.0872 16.1449 22.8627 14.8579 22.7344C14.1162 22.6622 13.3264 22.6221 12.4765 22.6221C0.152346 22.6221 0 14.9686 0 14.9686V12.928C0 12.928 0.152346 20.5855 12.4765 20.5855C14.3127 20.5855 15.8883 20.7699 17.2434 21.0826C17.9009 21.2309 18.5063 21.4154 19.0676 21.6198C19.3442 21.7241 19.6088 21.8283 19.8614 21.9406C21.032 22.4658 21.9622 23.0992 22.6999 23.7687C25.2617 26.1021 25.4983 28.8564 25.4983 28.8564C25.4983 28.8564 25.6907 26.5711 27.6632 24.4022C28.5131 23.4681 29.6958 22.554 31.3356 21.8564C31.5601 21.7602 31.7926 21.6679 32.0332 21.5838C32.6706 22.0208 33.28 22.5259 33.8493 23.0992Z" fill="#263452"/>
<path d="M50.9989 12.928V14.9686C50.9989 14.9686 50.8426 22.6221 38.5224 22.6221C38.1295 22.6221 37.7526 22.6301 37.3838 22.6502C36.6782 22.0769 35.9325 21.5597 35.1507 21.1026C35.0224 21.0265 34.8901 20.9543 34.7578 20.8821C35.8724 20.6937 37.1232 20.5855 38.5224 20.5855C50.8426 20.5855 50.9989 12.928 50.9989 12.928Z" fill="#263452"/>
<path d="M22.0063 19.1742C21.2165 19.3626 20.4547 19.6031 19.713 19.8918C19.705 19.8838 19.693 19.8798 19.681 19.8758C17.8849 19.106 15.5395 18.5968 12.4765 18.5968C0.152346 18.5968 0 10.9393 0 10.9393V8.89868C0 8.89868 0.152346 16.5562 12.4765 16.5562C16.2211 16.5562 18.8872 17.3179 20.7875 18.3803C21.2325 18.6289 21.6374 18.8935 22.0063 19.1742Z" fill="#263452"/>
<path d="M28.1223 19.9038C28.7838 20.0361 29.4293 20.2366 30.0547 20.5052C29.0404 21.0905 28.2506 21.76 27.6372 22.4416C25.6888 24.6025 25.4963 26.8677 25.4963 26.8677C25.4963 26.8677 25.2758 24.2337 22.8663 21.9405C22.4814 21.5716 22.0404 21.2108 21.5312 20.874C22.0564 20.6014 22.6017 20.3689 23.159 20.1925C23.3554 20.3969 23.5358 20.6054 23.7002 20.8099C25.3319 22.8385 25.4963 24.8311 25.4963 24.8311C25.4963 24.8311 25.6487 23.051 27.0398 21.1426C27.3405 20.7257 27.6973 20.3087 28.1223 19.9038Z" fill="#263452"/>
<path d="M50.9985 8.89868V10.9393C50.9985 10.9393 50.8381 18.5968 38.5179 18.5968C35.7957 18.5968 33.6428 19.0018 31.9349 19.6312C31.081 19.3385 30.1989 19.106 29.2969 18.9456C29.4572 18.8334 29.6216 18.7251 29.798 18.6169C31.7224 17.4342 34.5048 16.5562 38.5179 16.5562C50.8381 16.5562 50.9985 8.89868 50.9985 8.89868Z" fill="#263452"/>
<path d="M24.8889 18.7209C24.5 18.753 24.1151 18.7931 23.7262 18.8492C22.0464 16.7324 18.7829 14.5674 12.4765 14.5674C0.152346 14.5674 0 6.91395 0 6.91395V4.87329C0 4.87329 0.152346 12.5308 12.4765 12.5308C20.7674 12.5308 23.7944 16.2713 24.8889 18.7209Z" fill="#263452"/>
<path d="M26.6588 19.7193H26.6628C25.6244 21.3991 25.5001 22.8424 25.5001 22.8424C25.5001 22.8424 25.3839 21.4873 24.4297 19.8717C24.7103 19.8155 24.987 19.7754 25.2716 19.7514C25.4641 20.3888 25.5001 20.8018 25.5001 20.8018C25.5001 20.8018 25.5362 20.3768 25.7367 19.7193C25.889 19.7113 26.0374 19.7073 26.1897 19.7073C26.3421 19.7073 26.5024 19.7113 26.6588 19.7193Z" fill="#263452"/>
<path d="M50.9976 4.87329V6.91395C50.9976 6.91395 50.8453 14.5674 38.5211 14.5674C32.351 14.5674 29.0956 16.6402 27.3837 18.7129H27.3797C26.9868 18.6848 26.5979 18.6728 26.205 18.6728H26.1328C27.2433 16.2232 30.2863 12.5308 38.5211 12.5308C50.8453 12.5308 50.9976 4.87329 50.9976 4.87329Z" fill="#263452"/>
<path d="M50.9965 0.844238V2.8849C50.9965 2.8849 50.8441 10.5384 38.52 10.5384C27.0979 10.5384 25.6626 17.6426 25.5143 18.685C25.5023 18.689 25.4942 18.689 25.4822 18.689C25.3379 17.6627 23.9106 10.5384 12.4765 10.5384C0.152346 10.5384 0 2.8849 0 2.8849V0.844238C0 0.844238 0.152346 8.50173 12.4765 8.50173C24.8007 8.50173 25.4983 16.7766 25.4983 16.7766C25.4983 16.7766 26.1958 8.50173 38.52 8.50173C50.8441 8.50173 50.9965 0.844238 50.9965 0.844238Z" fill="#263452"/>
</svg>
