<svg width="30" height="39" viewBox="0 0 30 39" fill="none" xmlns="http://www.w3.org/2000/svg">
<path d="M22.6578 32.9393C15.4086 32.9393 14.9983 37.8067 14.9983 37.8067C14.9983 37.8067 14.5879 32.9393 7.33878 32.9393C0.0896113 32.9393 0 28.4375 0 28.4375V29.6378C0 29.6378 0.0919695 34.1397 7.33878 34.1397C14.5856 34.1397 14.9983 39.007 14.9983 39.007C14.9983 39.007 15.4086 34.1397 22.6578 34.1397C29.9069 34.1397 29.9966 29.6378 29.9966 29.6378V28.4375C29.9966 28.4375 29.9046 32.9393 22.6578 32.9393Z" fill="white"/>
<path d="M22.6578 30.5682C15.4086 30.5682 14.9983 35.4356 14.9983 35.4356C14.9983 35.4356 14.5879 30.5682 7.33878 30.5682C0.0896113 30.5682 0 26.0664 0 26.0664V27.2667C0 27.2667 0.0919695 31.7686 7.33878 31.7686C14.5856 31.7686 14.9983 36.636 14.9983 36.636C14.9983 36.636 15.4086 31.7686 22.6578 31.7686C29.9069 31.7686 29.9966 27.2667 29.9966 27.2667V26.0664C29.9966 26.0664 29.9046 30.5682 22.6578 30.5682Z" fill="white"/>
<path d="M9.19942 29.5178C8.63581 29.4399 8.01795 29.3975 7.33878 29.3975C0.0896113 29.3975 0 24.8933 0 24.8933V23.6953C0 23.6953 0.0896113 28.1972 7.33878 28.1972C7.46612 28.1972 7.59347 28.1995 7.7161 28.2019C8.16652 28.6853 8.6641 29.1263 9.19942 29.5178Z" fill="white"/>
<path d="M13.9967 30.7625C12.7115 30.4371 11.5418 29.6754 10.582 28.5977C12.2988 29.0834 13.3529 29.9324 13.9967 30.7625Z" fill="white"/>
<path d="M15.4962 31.5472C15.8004 31.5472 16.1022 31.5307 16.4017 31.5024C15.1188 32.8183 14.9962 34.2639 14.9962 34.2639C14.9962 34.2639 14.8665 32.7145 13.4492 31.3633C13.7888 31.4293 14.1307 31.4765 14.475 31.5071C14.9373 32.3702 14.9962 33.0636 14.9962 33.0636C14.9962 33.0636 15.0528 32.3915 15.4962 31.5472Z" fill="white"/>
<path d="M20.4334 28.3711C19.2047 29.845 17.6153 30.7718 15.8867 30.918C16.6248 29.8874 17.9761 28.7885 20.4334 28.3711Z" fill="white"/>
<path d="M29.9982 23.6953V24.8933C29.9982 24.8933 29.9086 29.3975 22.6594 29.3975C22.3481 29.3975 22.051 29.4069 21.7656 29.4234C22.2538 29.0555 22.7113 28.6429 23.1263 28.1901C29.9133 28.0014 29.9982 23.6953 29.9982 23.6953Z" fill="white"/>
<path d="M21.948 25.8426C21.7664 26.2788 21.5612 26.6939 21.3325 27.0854C20.184 27.1915 19.2431 27.4344 18.4719 27.7574C17.4862 28.1725 16.7764 28.7172 16.2717 29.2738C15.7388 29.8586 15.4251 30.46 15.2459 30.9387C15.0737 30.934 14.9039 30.9222 14.7365 30.901C14.5125 30.3279 14.0998 29.5803 13.3522 28.9012C12.8122 28.4107 12.0977 27.9532 11.1497 27.6112C10.678 27.4438 10.1498 27.3023 9.55551 27.2009C8.89992 27.0901 8.16416 27.0264 7.33878 27.0264C7.14069 27.0264 6.94732 27.0264 6.76102 27.017C0.0848992 26.7835 0 22.5222 0 22.5222V21.3242C0 21.3242 0.0778235 25.2601 6.01582 25.7718C6.42851 25.8072 6.86949 25.8261 7.33878 25.8261C7.89532 25.8261 8.41413 25.8544 8.89285 25.9086C9.76303 26.0053 10.5082 26.1822 11.1497 26.4109C12.0977 26.7528 12.8122 27.2103 13.3522 27.7008C14.8591 29.071 14.9983 30.6934 14.9983 30.6934C14.9983 30.6934 15.1115 29.3492 16.2717 28.0734C16.6891 27.6112 17.248 27.1585 17.9885 26.7811C18.1418 26.7033 18.3021 26.6279 18.4696 26.5595C19.3751 26.1774 20.5118 25.9086 21.9456 25.8426H21.948Z" fill="white"/>
<path d="M29.9948 21.3242V22.5222C29.9948 22.5222 29.9146 26.4062 24.1016 26.9604C24.3822 26.55 24.6345 26.1185 24.8538 25.6657C29.9217 24.8639 29.9948 21.3242 29.9948 21.3242Z" fill="white"/>
<path d="M5.12441 23.2962C5.2211 23.723 5.34137 24.1404 5.48994 24.5484C0.0731047 23.8574 0 20.1574 0 20.1574V18.957C0 18.957 0.0707491 22.4896 5.12441 23.2962Z" fill="white"/>
<path d="M29.9965 18.957V20.1574C29.9965 20.1574 29.9069 24.6592 22.6578 24.6592C15.4086 24.6592 14.9983 29.5266 14.9983 29.5266C14.9983 29.5266 14.6304 25.1709 8.4542 24.7017C8.33393 24.3078 8.23252 23.8999 8.15234 23.4825C14.6186 23.8315 14.9983 28.3262 14.9983 28.3262C14.9983 28.3262 15.4086 23.4612 22.6578 23.4612C29.9069 23.4612 29.9965 18.957 29.9965 18.957Z" fill="white"/>
<path d="M29.9966 16.5859V17.7863C29.9966 17.7863 29.9046 22.2881 22.6578 22.2881C15.411 22.2881 14.9983 27.1555 14.9983 27.1555C14.9983 27.1555 14.8591 25.533 13.3522 24.1629C12.8122 23.6724 12.0977 23.2149 11.1497 22.873C10.296 22.5664 9.25602 22.3541 7.98258 22.3023C7.77505 22.2928 7.56045 22.2881 7.33878 22.2881C6.42851 22.2881 5.62907 22.2174 4.93104 22.0924C0.0683891 21.2269 0 17.7863 0 17.7863V16.5859C0 16.5859 0.0683891 20.0054 4.87916 20.885C5.59134 21.0147 6.40493 21.0901 7.33878 21.0901C7.53687 21.0901 7.73024 21.0949 7.9189 21.0996C9.22064 21.1491 10.2818 21.3637 11.1497 21.675C12.0977 22.0169 12.8122 22.4744 13.3522 22.9649C14.8591 24.3351 14.9983 25.9551 14.9983 25.9551C14.9983 25.9551 15.4086 21.0901 22.6578 21.0901C29.9069 21.0901 29.9966 16.5859 29.9966 16.5859Z" fill="white"/>
<path d="M5.16922 18.5649C5.07489 18.947 5.00414 19.3337 4.95698 19.7299C0.0683859 18.8715 0 15.4167 0 15.4167V14.2188C0 14.2188 0.0707496 17.7726 5.16922 18.5649Z" fill="white"/>
<path d="M29.9977 14.2188V15.4167C29.9977 15.4167 29.9081 19.9209 22.6589 19.9209C15.4097 19.9209 14.9994 24.7883 14.9994 24.7883C14.9994 24.7883 14.6127 20.2039 7.96484 19.9327C7.99786 19.5295 8.04975 19.1309 8.11813 18.7418C14.6197 19.0743 14.9994 23.588 14.9994 23.588C14.9994 23.588 15.4097 18.7206 22.6589 18.7206C29.9081 18.7206 29.9977 14.2188 29.9977 14.2188Z" fill="white"/>
<path d="M22.422 17.5522C15.3992 17.656 14.9983 22.4172 14.9983 22.4172C14.9983 22.4172 14.8591 20.7947 13.3522 19.4246C12.8122 18.9341 12.0977 18.4766 11.1497 18.1347C10.388 17.8611 9.47533 17.663 8.38112 17.5852C8.05097 17.5616 7.7043 17.5498 7.33878 17.5498C6.66905 17.5498 6.06063 17.5121 5.50645 17.4414C0.0731061 16.7551 0 13.0456 0 13.0456V11.8477C0 11.8477 0.0778239 15.7788 6.00167 16.2953C6.41672 16.3306 6.86242 16.3495 7.33878 16.3495C7.85051 16.3495 8.32924 16.3731 8.77258 16.4179C9.69465 16.5122 10.4799 16.6938 11.1497 16.9343C12.0977 17.2763 12.8122 17.7338 13.3522 18.2243C14.8591 19.5944 14.9983 21.2169 14.9983 21.2169C14.9983 21.2169 15.385 16.6396 22.0187 16.3637C22.1743 16.7457 22.3088 17.1419 22.422 17.5522Z" fill="white"/>
<path d="M29.9977 11.8477V13.0456C29.9977 13.0456 29.9293 16.3896 25.2765 17.314C25.1398 16.9178 24.9346 16.5051 24.7695 16.2033C29.9246 15.4274 29.9977 11.8477 29.9977 11.8477Z" fill="white"/>
<path d="M7.33878 13.9808C7.42132 13.9808 7.5015 13.9808 7.58168 13.9831C7.24681 14.3557 6.93788 14.7519 6.65961 15.1669C0.0848938 14.8934 0 10.6769 0 10.6769V9.47656C0 9.47656 0.0896113 13.9808 7.33878 13.9808Z" fill="white"/>
<path d="M21.4929 15.2256C15.3686 15.7185 15.003 20.0482 15.003 20.0482C15.003 20.0482 14.6705 16.0911 9.28906 15.3129C9.49187 14.9332 9.71354 14.5724 9.95408 14.2328C14.6965 15.2256 15.003 18.8502 15.003 18.8502C15.003 18.8502 15.3403 14.8601 20.783 14.1055C21.0401 14.4545 21.2759 14.8271 21.4929 15.2256Z" fill="white"/>
<path d="M29.9972 9.47656V10.6769C29.9972 10.6769 29.9193 14.5585 24.1063 15.1127C23.8304 14.7095 23.5286 14.3274 23.2031 13.9713C29.9123 13.752 29.9972 9.47656 29.9972 9.47656Z" fill="white"/>
<path d="M19.9104 13.0922C19.3751 13.2124 18.8964 13.3681 18.4719 13.545C17.4862 13.9576 16.7764 14.5024 16.2717 15.0589C15.1115 16.3347 14.9983 17.6789 14.9983 17.6789C14.9983 17.6789 14.8591 16.0565 13.3522 14.6863C12.8122 14.1958 12.0977 13.7383 11.1497 13.3964C11.0176 13.3492 10.8832 13.3044 10.7441 13.262C10.1592 13.0851 9.49655 12.953 8.73956 12.8776C8.30329 12.8351 7.83872 12.8116 7.33878 12.8116C0.0896113 12.8116 0 8.30971 0 8.30971V7.10938C0 7.10938 0.0896113 11.6136 7.33878 11.6136C8.41884 11.6136 9.34563 11.7221 10.1427 11.906C10.5295 11.9932 10.8855 12.1017 11.2157 12.222C11.3784 12.2833 11.5341 12.3446 11.6826 12.4107C12.3712 12.7196 12.9183 13.0922 13.3522 13.486C14.8591 14.8585 14.9983 16.4786 14.9983 16.4786C14.9983 16.4786 15.1115 15.1344 16.2717 13.8586C16.7717 13.3091 17.4673 12.7715 18.4318 12.3611C18.5639 12.3045 18.7007 12.2503 18.8422 12.2008C19.2171 12.4578 19.5756 12.755 19.9104 13.0922Z" fill="white"/>
<path d="M29.9985 7.10938V8.30971C29.9985 8.30971 29.9065 12.8115 22.6597 12.8115C22.4286 12.8115 22.2069 12.8163 21.9899 12.8281C21.5749 12.4908 21.1363 12.1866 20.6764 11.9178C20.601 11.873 20.5231 11.8305 20.4453 11.7881C21.1009 11.6772 21.8367 11.6136 22.6597 11.6136C29.9065 11.6136 29.9985 7.10938 29.9985 7.10938Z" fill="white"/>
<path d="M12.9443 10.7824C12.4797 10.8932 12.0316 11.0347 11.5954 11.2045C11.5907 11.1998 11.5836 11.1974 11.5765 11.1951C10.52 10.7423 9.14046 10.4428 7.33878 10.4428C0.0896113 10.4428 0 5.93861 0 5.93861V4.73828C0 4.73828 0.0896113 9.24248 7.33878 9.24248C9.54136 9.24248 11.1096 9.69054 12.2274 10.3155C12.4891 10.4617 12.7273 10.6173 12.9443 10.7824Z" fill="white"/>
<path d="M16.5449 11.2109C16.934 11.2888 17.3137 11.4067 17.6815 11.5647C17.0849 11.909 16.6203 12.3028 16.2595 12.7037C15.1134 13.9748 15.0003 15.3072 15.0003 15.3072C15.0003 15.3072 14.8706 13.7578 13.4533 12.4089C13.2269 12.192 12.9675 11.9797 12.668 11.7816C12.9769 11.6213 13.2976 11.4845 13.6254 11.3807C13.741 11.501 13.8471 11.6236 13.9438 11.7439C14.9036 12.9371 15.0003 14.1092 15.0003 14.1092C15.0003 14.1092 15.0899 13.0621 15.9082 11.9396C16.085 11.6944 16.2949 11.4491 16.5449 11.2109Z" fill="white"/>
<path d="M29.9994 4.73828V5.93861C29.9994 5.93861 29.9051 10.4428 22.6583 10.4428C21.0571 10.4428 19.7907 10.681 18.7861 11.0512C18.2838 10.8791 17.765 10.7423 17.2344 10.648C17.3287 10.582 17.4254 10.5183 17.5292 10.4546C18.6611 9.75893 20.2977 9.24248 22.6583 9.24248C29.9051 9.24248 29.9994 4.73828 29.9994 4.73828Z" fill="white"/>
<path d="M14.6398 10.5125C14.4111 10.5313 14.1847 10.5549 13.9559 10.5879C12.9679 9.3428 11.0483 8.06937 7.33878 8.06937C0.0896113 8.06937 0 3.56752 0 3.56752V2.36719C0 2.36719 0.0896113 6.87139 7.33878 6.87139C12.2156 6.87139 13.996 9.07161 14.6398 10.5125Z" fill="white"/>
<path d="M15.6784 11.1008H15.6807C15.0699 12.0889 14.9968 12.9379 14.9968 12.9379C14.9968 12.9379 14.9284 12.1408 14.3672 11.1904C14.5323 11.1574 14.695 11.1338 14.8624 11.1197C14.9756 11.4947 14.9968 11.7375 14.9968 11.7375C14.9968 11.7375 15.0181 11.4876 15.136 11.1008C15.2256 11.0961 15.3128 11.0938 15.4024 11.0938C15.4921 11.0938 15.5864 11.0961 15.6784 11.1008Z" fill="white"/>
<path d="M29.9968 2.36719V3.56752C29.9968 3.56752 29.9072 8.06937 22.658 8.06937C19.0287 8.06937 17.1138 9.28856 16.1069 10.5078H16.1045C15.8734 10.4913 15.6447 10.4842 15.4135 10.4842H15.3711C16.0243 9.04331 17.8142 6.87139 22.658 6.87139C29.9072 6.87139 29.9968 2.36719 29.9968 2.36719Z" fill="white"/>
<path d="M29.9966 0V1.20033C29.9966 1.20033 29.9069 5.70218 22.6578 5.70218C15.9392 5.70218 15.095 9.88094 15.0077 10.4941C15.0006 10.4964 14.9959 10.4964 14.9888 10.4964C14.904 9.89274 14.0644 5.70218 7.33878 5.70218C0.0896113 5.70218 0 1.20033 0 1.20033V0C0 0 0.0896113 4.5042 7.33878 4.5042C14.5879 4.5042 14.9983 9.37157 14.9983 9.37157C14.9983 9.37157 15.4086 4.5042 22.6578 4.5042C29.9069 4.5042 29.9966 0 29.9966 0Z" fill="white"/>
</svg>
