<svg width="210" height="159" viewBox="0 0 210 159" fill="none" xmlns="http://www.w3.org/2000/svg">
<path d="M128.563 101.332C106.26 101.332 104.998 116.307 104.998 116.307C104.998 116.307 103.736 101.332 81.4334 101.332C59.1312 101.332 58.8555 87.4824 58.8555 87.4824V91.1753C58.8555 91.1753 59.1384 105.025 81.4334 105.025C103.728 105.025 104.998 120 104.998 120C104.998 120 106.26 105.025 128.563 105.025C150.865 105.025 151.141 91.1753 151.141 91.1753V87.4824C151.141 87.4824 150.858 101.332 128.563 101.332Z" fill="white"/>
<path d="M128.563 94.0409C106.26 94.0409 104.998 109.016 104.998 109.016C104.998 109.016 103.736 94.0409 81.4334 94.0409C59.1312 94.0409 58.8555 80.1909 58.8555 80.1909V83.8838C58.8555 83.8838 59.1384 97.7338 81.4334 97.7338C103.728 97.7338 104.998 112.708 104.998 112.708C104.998 112.708 106.26 97.7338 128.563 97.7338C150.865 97.7338 151.141 83.8838 151.141 83.8838V80.1909C151.141 80.1909 150.858 94.0409 128.563 94.0409Z" fill="white"/>
<path d="M87.1577 90.8126C85.4237 90.5731 83.5229 90.4425 81.4334 90.4425C59.1312 90.4425 58.8555 76.5853 58.8555 76.5853V72.8997C58.8555 72.8997 59.1312 86.7497 81.4334 86.7497C81.8252 86.7497 82.217 86.7569 82.5942 86.7642C83.98 88.2515 85.5108 89.6082 87.1577 90.8126Z" fill="white"/>
<path d="M101.916 94.6502C97.9615 93.649 94.363 91.3056 91.4102 87.99C96.6919 89.4845 99.9349 92.0964 101.916 94.6502Z" fill="white"/>
<path d="M106.536 97.0593C107.472 97.0593 108.4 97.0085 109.322 96.9215C105.375 100.97 104.998 105.417 104.998 105.417C104.998 105.417 104.599 100.651 100.238 96.4934C101.283 96.6966 102.335 96.8417 103.394 96.936C104.816 99.5914 104.998 101.724 104.998 101.724C104.998 101.724 105.172 99.6566 106.536 97.0593Z" fill="white"/>
<path d="M121.722 87.2937C117.942 91.8282 113.052 94.6794 107.734 95.1292C110.005 91.9587 114.162 88.5779 121.722 87.2937Z" fill="white"/>
<path d="M151.14 72.8997V76.5853C151.14 76.5853 150.864 90.4425 128.562 90.4425C127.605 90.4425 126.69 90.4716 125.812 90.5223C127.314 89.3905 128.722 88.1209 129.999 86.7279C150.879 86.1475 151.14 72.8997 151.14 72.8997Z" fill="white"/>
<path d="M126.379 79.509C125.82 80.8512 125.189 82.1281 124.485 83.3324C120.952 83.6589 118.057 84.4062 115.685 85.4001C112.652 86.677 110.468 88.353 108.916 90.0652C107.276 91.8645 106.311 93.7145 105.76 95.1873C105.23 95.1728 104.708 95.1365 104.193 95.0712C103.504 93.3082 102.234 91.0083 99.934 88.9189C98.2726 87.4098 96.0743 86.0023 93.1577 84.9503C91.7067 84.4352 90.0815 83.9999 88.2532 83.6879C86.2363 83.3469 83.9727 83.1511 81.4334 83.1511C80.824 83.1511 80.2291 83.1511 79.6559 83.122C59.1167 82.4038 58.8555 69.2938 58.8555 69.2938V65.6082C58.8555 65.6082 59.0949 77.717 77.3633 79.2913C78.6329 79.4002 79.9896 79.4582 81.4334 79.4582C83.1456 79.4582 84.7417 79.5452 86.2145 79.7121C88.8917 80.0096 91.1843 80.5537 93.1577 81.2575C96.0743 82.3095 98.2726 83.717 99.934 85.226C104.57 89.4412 104.998 94.4328 104.998 94.4328C104.998 94.4328 105.346 90.2973 108.916 86.3723C110.2 84.9503 111.919 83.5573 114.198 82.3965C114.669 82.1571 115.162 81.9249 115.678 81.7145C118.464 80.5392 121.961 79.7121 126.372 79.509H126.379Z" fill="white"/>
<path d="M151.142 65.6082V69.2938C151.142 69.2938 150.896 81.2429 133.012 82.9479C133.875 81.6855 134.651 80.3578 135.326 78.9648C150.917 76.4981 151.142 65.6082 151.142 65.6082Z" fill="white"/>
<path d="M74.6209 71.6663C74.9183 72.9795 75.2883 74.2637 75.7454 75.5188C59.0804 73.393 58.8555 62.0098 58.8555 62.0098V58.3169C58.8555 58.3169 59.0731 69.1851 74.6209 71.6663Z" fill="white"/>
<path d="M151.142 58.3169V62.0098C151.142 62.0098 150.866 75.8598 128.564 75.8598C106.262 75.8598 104.999 90.8344 104.999 90.8344C104.999 90.8344 103.867 77.4341 84.8662 75.9904C84.4961 74.7788 84.1842 73.5236 83.9375 72.2395C103.831 73.3132 104.999 87.1415 104.999 87.1415C104.999 87.1415 106.262 72.1742 128.564 72.1742C150.866 72.1742 151.142 58.3169 151.142 58.3169Z" fill="white"/>
<path d="M151.141 51.0254V54.7183C151.141 54.7183 150.858 68.5683 128.563 68.5683C106.268 68.5683 104.998 83.5429 104.998 83.5429C104.998 83.5429 104.57 78.5513 99.934 74.3361C98.2726 72.827 96.0743 71.4195 93.1577 70.3676C90.5313 69.4244 87.3318 68.7714 83.4141 68.6118C82.7756 68.5828 82.1154 68.5683 81.4334 68.5683C78.6329 68.5683 76.1735 68.3506 74.0259 67.9661C59.0659 65.3035 58.8555 54.7183 58.8555 54.7183V51.0254C58.8555 51.0254 59.0659 61.5453 73.8663 64.2515C76.0574 64.6505 78.5604 64.8827 81.4334 64.8827C82.0428 64.8827 82.6378 64.8972 83.2182 64.9117C87.223 65.0641 90.4878 65.7243 93.1577 66.682C96.0743 67.734 98.2726 69.1415 99.934 70.6505C104.57 74.8657 104.998 79.85 104.998 79.85C104.998 79.85 106.26 64.8827 128.563 64.8827C150.865 64.8827 151.141 51.0254 151.141 51.0254Z" fill="white"/>
<path d="M74.7587 57.1124C74.4685 58.2877 74.2508 59.4776 74.1057 60.6964C59.0659 58.0556 58.8555 47.4268 58.8555 47.4268V43.7412C58.8555 43.7412 59.0731 54.6747 74.7587 57.1124Z" fill="white"/>
<path d="M151.14 43.7412V47.4268C151.14 47.4268 150.864 61.2841 128.562 61.2841C106.26 61.2841 104.998 76.2587 104.998 76.2587C104.998 76.2587 103.808 62.1547 83.3555 61.3204C83.457 60.0797 83.6167 58.8536 83.8271 57.6565C103.829 58.6795 104.998 72.5658 104.998 72.5658C104.998 72.5658 106.26 57.5912 128.562 57.5912C150.864 57.5912 151.14 43.7412 151.14 43.7412Z" fill="white"/>
<path d="M127.837 54.0001C106.231 54.3193 104.998 68.9674 104.998 68.9674C104.998 68.9674 104.57 63.9759 99.934 59.7607C98.2726 58.2516 96.0743 56.8441 93.1577 55.7921C90.8143 54.9505 88.0066 54.3411 84.6402 54.1017C83.6245 54.0291 82.558 53.9929 81.4334 53.9929C79.373 53.9929 77.5011 53.8768 75.7962 53.6591C59.0804 51.5479 58.8555 40.1356 58.8555 40.1356V36.45C58.8555 36.45 59.0949 48.5443 77.3198 50.1331C78.5967 50.242 79.9679 50.3 81.4334 50.3C83.0078 50.3 84.4806 50.3725 85.8445 50.5104C88.6813 50.8006 91.0972 51.3592 93.1577 52.0993C96.0743 53.1513 98.2726 54.5588 99.934 56.0678C104.57 60.283 104.998 65.2746 104.998 65.2746C104.998 65.2746 106.188 51.1924 126.597 50.3435C127.075 51.5189 127.489 52.7377 127.837 54.0001Z" fill="white"/>
<path d="M151.139 36.45V40.1356C151.139 40.1356 150.929 50.4233 136.615 53.2673C136.194 52.0485 135.563 50.7788 135.055 49.8502C150.914 47.4632 151.139 36.45 151.139 36.45Z" fill="white"/>
<path d="M81.4334 43.0157C81.6873 43.0157 81.934 43.0157 82.1807 43.023C81.1505 44.1693 80.2 45.3882 79.3439 46.6651C59.1166 45.8235 58.8555 32.8513 58.8555 32.8513V29.1584C58.8555 29.1584 59.1312 43.0157 81.4334 43.0157Z" fill="white"/>
<path d="M124.963 46.8393C106.122 48.3556 104.997 61.676 104.997 61.676C104.997 61.676 103.974 49.5019 87.418 47.1077C88.0419 45.9396 88.7239 44.8296 89.4639 43.7848C104.054 46.8393 104.997 57.9904 104.997 57.9904C104.997 57.9904 106.035 45.7147 122.779 43.3931C123.57 44.4668 124.296 45.6131 124.963 46.8393Z" fill="white"/>
<path d="M151.14 29.1584V32.8513C151.14 32.8513 150.901 44.7932 133.017 46.4982C132.168 45.2576 131.239 44.0822 130.238 42.9867C150.879 42.312 151.14 29.1584 151.14 29.1584Z" fill="white"/>
<path d="M120.11 40.2734C118.464 40.6434 116.991 41.1223 115.685 41.6664C112.652 42.9361 110.468 44.612 108.916 46.3242C105.346 50.2492 104.998 54.3846 104.998 54.3846C104.998 54.3846 104.57 49.3931 99.934 45.1779C98.2726 43.6688 96.0743 42.2613 93.1577 41.2093C92.7514 41.0642 92.3379 40.9264 91.9098 40.7958C90.1105 40.2517 88.0719 39.8454 85.743 39.6132C84.4008 39.4826 82.9715 39.4101 81.4334 39.4101C59.1312 39.4101 58.8555 25.56 58.8555 25.56V21.8672C58.8555 21.8672 59.1312 35.7245 81.4334 35.7245C84.7563 35.7245 87.6075 36.0582 90.0598 36.6241C91.2496 36.8926 92.3451 37.2263 93.3608 37.5963C93.8614 37.7849 94.3403 37.9736 94.7974 38.1767C96.9159 39.1271 98.599 40.2734 99.934 41.485C104.57 45.7075 104.998 50.6918 104.998 50.6918C104.998 50.6918 105.346 46.5564 108.916 42.6314C110.454 40.9409 112.594 39.2867 115.562 38.0243C115.968 37.8502 116.389 37.6834 116.824 37.531C117.977 38.3218 119.08 39.236 120.11 40.2734Z" fill="white"/>
<path d="M151.141 21.8672V25.56C151.141 25.56 150.858 39.4101 128.563 39.4101C127.852 39.4101 127.17 39.4246 126.502 39.4609C125.225 38.4234 123.876 37.4875 122.461 36.6604C122.229 36.5225 121.989 36.3919 121.75 36.2614C123.767 35.9204 126.031 35.7245 128.563 35.7245C150.858 35.7245 151.141 21.8672 151.141 21.8672Z" fill="white"/>
<path d="M98.6789 33.1703C97.2496 33.5113 95.8711 33.9466 94.5289 34.469C94.5144 34.4545 94.4926 34.4472 94.4709 34.44C91.2206 33.047 86.9763 32.1256 81.4334 32.1256C59.1312 32.1256 58.8555 18.2683 58.8555 18.2683V14.5754C58.8555 14.5754 59.1312 28.4327 81.4334 28.4327C88.2097 28.4327 93.0344 29.8112 96.4733 31.7338C97.2786 32.1836 98.0114 32.6625 98.6789 33.1703Z" fill="white"/>
<path d="M109.752 34.491C110.949 34.7304 112.117 35.0931 113.249 35.5792C111.413 36.6385 109.984 37.8501 108.874 39.0835C105.348 42.994 105 47.0931 105 47.0931C105 47.0931 104.601 42.3265 100.24 38.1766C99.5437 37.5091 98.7456 36.8561 97.8242 36.2467C98.7746 35.7533 99.7613 35.3326 100.77 35.0133C101.125 35.3833 101.452 35.7606 101.749 36.1306C104.702 39.8017 105 43.4075 105 43.4075C105 43.4075 105.275 40.1862 107.793 36.7328C108.337 35.9783 108.983 35.2237 109.752 34.491Z" fill="white"/>
<path d="M151.147 14.5754V18.2683C151.147 18.2683 150.857 32.1256 128.562 32.1256C123.636 32.1256 119.74 32.8584 116.649 33.9974C115.104 33.4678 113.507 33.047 111.875 32.7568C112.165 32.5536 112.463 32.3577 112.782 32.1619C116.264 30.0216 121.299 28.4327 128.562 28.4327C150.857 28.4327 151.147 14.5754 151.147 14.5754Z" fill="white"/>
<path d="M103.895 32.3505C103.192 32.4085 102.495 32.4811 101.791 32.5826C98.7514 28.7519 92.8457 24.8342 81.4334 24.8342C59.1312 24.8342 58.8555 10.9841 58.8555 10.9841V7.29126C58.8555 7.29126 59.1312 21.1485 81.4334 21.1485C96.437 21.1485 101.915 27.9176 103.895 32.3505Z" fill="white"/>
<path d="M107.096 34.157H107.104C105.225 37.1969 105 39.8088 105 39.8088C105 39.8088 104.789 37.3565 103.062 34.4327C103.57 34.3311 104.071 34.2586 104.586 34.2151C104.934 35.3686 105 36.1159 105 36.1159C105 36.1159 105.065 35.3469 105.428 34.157C105.703 34.1425 105.972 34.1353 106.248 34.1353C106.523 34.1353 106.813 34.1425 107.096 34.157Z" fill="white"/>
<path d="M151.141 7.29126V10.9841C151.141 10.9841 150.865 24.8342 128.563 24.8342C117.397 24.8342 111.506 28.5851 108.408 32.336H108.401C107.69 32.2852 106.986 32.2634 106.275 32.2634H106.145C108.154 27.8305 113.661 21.1485 128.563 21.1485C150.865 21.1485 151.141 7.29126 151.141 7.29126Z" fill="white"/>
<path d="M151.141 0V3.69286C151.141 3.69286 150.865 17.5429 128.563 17.5429C107.893 17.5429 105.296 30.399 105.027 32.2853C105.005 32.2926 104.991 32.2926 104.969 32.2926C104.708 30.4353 102.125 17.5429 81.4334 17.5429C59.1312 17.5429 58.8555 3.69286 58.8555 3.69286V0C58.8555 0 59.1312 13.8573 81.4334 13.8573C103.736 13.8573 104.998 28.8319 104.998 28.8319C104.998 28.8319 106.26 13.8573 128.563 13.8573C150.865 13.8573 151.141 0 151.141 0Z" fill="white"/>
<path d="M75 148H135" stroke="white" stroke-width="2"/>
<path d="M75 158H135" stroke="white" stroke-width="2"/>
</svg>
