<svg width="94" height="120" viewBox="0 0 94 120" fill="none" xmlns="http://www.w3.org/2000/svg">
<path d="M70.5607 101.333C48.2585 101.333 46.9961 116.307 46.9961 116.307C46.9961 116.307 45.7337 101.333 23.4315 101.333C1.12921 101.333 0.853516 87.4825 0.853516 87.4825V91.1754C0.853516 91.1754 1.13646 105.025 23.4315 105.025C45.7265 105.025 46.9961 120 46.9961 120C46.9961 120 48.2585 105.025 70.5607 105.025C92.863 105.025 93.1387 91.1754 93.1387 91.1754V87.4825C93.1387 87.4825 92.8557 101.333 70.5607 101.333Z" fill="white"/>
<path d="M70.5607 94.0409C48.2585 94.0409 46.9961 109.015 46.9961 109.015C46.9961 109.015 45.7337 94.0409 23.4315 94.0409C1.12921 94.0409 0.853516 80.1909 0.853516 80.1909V83.8837C0.853516 83.8837 1.13646 97.7337 23.4315 97.7337C45.7265 97.7337 46.9961 112.708 46.9961 112.708C46.9961 112.708 48.2585 97.7337 70.5607 97.7337C92.863 97.7337 93.1387 83.8837 93.1387 83.8837V80.1909C93.1387 80.1909 92.8557 94.0409 70.5607 94.0409Z" fill="white"/>
<path d="M29.1558 90.8126C27.4218 90.5732 25.5209 90.4426 23.4315 90.4426C1.12921 90.4426 0.853516 76.5853 0.853516 76.5853V72.8997C0.853516 72.8997 1.12921 86.7497 23.4315 86.7497C23.8232 86.7497 24.215 86.757 24.5923 86.7643C25.978 88.2516 27.5089 89.6083 29.1558 90.8126Z" fill="white"/>
<path d="M43.9136 94.6503C39.9596 93.649 36.361 91.3056 33.4082 87.9901C38.6899 89.4846 41.933 92.0964 43.9136 94.6503Z" fill="white"/>
<path d="M48.5338 97.0592C49.4697 97.0592 50.3983 97.0085 51.3197 96.9214C47.3729 100.97 46.9957 105.417 46.9957 105.417C46.9957 105.417 46.5967 100.651 42.2363 96.4933C43.2811 96.6965 44.3331 96.8416 45.3923 96.9359C46.8143 99.5913 46.9957 101.724 46.9957 101.724C46.9957 101.724 47.1698 99.6566 48.5338 97.0592Z" fill="white"/>
<path d="M63.7203 87.2937C59.9404 91.8282 55.0504 94.6794 49.7324 95.1292C52.0033 91.9587 56.1605 88.5779 63.7203 87.2937Z" fill="white"/>
<path d="M93.1382 72.8997V76.5853C93.1382 76.5853 92.8625 90.4426 70.5602 90.4426C69.6025 90.4426 68.6884 90.4716 67.8105 90.5224C69.3124 89.3906 70.7198 88.121 71.9967 86.728C92.877 86.1476 93.1382 72.8997 93.1382 72.8997Z" fill="white"/>
<path d="M68.377 79.509C67.8183 80.8512 67.1871 82.1282 66.4834 83.3325C62.9501 83.659 60.0553 84.4062 57.6829 85.4002C54.6503 86.6771 52.4665 88.353 50.9139 90.0653C49.2742 91.8645 48.3093 93.7146 47.7579 95.1874C47.2283 95.1729 46.7059 95.1366 46.1908 95.0713C45.5015 93.3083 44.2319 91.0084 41.932 88.9189C40.2706 87.4099 38.0723 86.0024 35.1557 84.9504C33.7047 84.4353 32.0796 84 30.2513 83.688C28.2344 83.347 25.9708 83.1511 23.4315 83.1511C22.822 83.1511 22.2271 83.1511 21.654 83.1221C1.11471 82.4038 0.853516 69.2938 0.853516 69.2938V65.6082C0.853516 65.6082 1.09294 77.717 19.3613 79.2914C20.631 79.4002 21.9877 79.4582 23.4315 79.4582C25.1437 79.4582 26.7398 79.5453 28.2126 79.7122C30.8897 80.0096 33.1824 80.5538 35.1557 81.2575C38.0723 82.3095 40.2706 83.717 41.932 85.2261C46.5681 89.4413 46.9961 94.4328 46.9961 94.4328C46.9961 94.4328 47.3444 90.2974 50.9139 86.3724C52.198 84.9504 53.9175 83.5574 56.1956 82.3966C56.6672 82.1572 57.1605 81.925 57.6757 81.7146C60.4616 80.5393 63.9586 79.7122 68.3697 79.509H68.377Z" fill="white"/>
<path d="M93.1384 65.6082V69.2938C93.1384 69.2938 92.8917 81.243 75.0078 82.948C75.8712 81.6856 76.6475 80.3579 77.3222 78.9649C92.9135 76.4982 93.1384 65.6082 93.1384 65.6082Z" fill="white"/>
<path d="M16.6189 71.6662C16.9164 72.9794 17.2864 74.2635 17.7434 75.5187C1.07842 73.3929 0.853516 62.0096 0.853516 62.0096V58.3168C0.853516 58.3168 1.07118 69.1849 16.6189 71.6662Z" fill="white"/>
<path d="M93.1378 58.3168V62.0096C93.1378 62.0096 92.8621 75.8597 70.5599 75.8597C48.2576 75.8597 46.9952 90.8342 46.9952 90.8342C46.9952 90.8342 45.8634 77.434 26.8622 75.9902C26.4922 74.7786 26.1803 73.5235 25.9336 72.2394C45.8271 73.3131 46.9952 87.1414 46.9952 87.1414C46.9952 87.1414 48.2576 72.1741 70.5599 72.1741C92.8621 72.1741 93.1378 58.3168 93.1378 58.3168Z" fill="white"/>
<path d="M93.1387 51.0255V54.7183C93.1387 54.7183 92.8557 68.5684 70.5607 68.5684C48.2657 68.5684 46.9961 83.5429 46.9961 83.5429C46.9961 83.5429 46.5681 78.5514 41.932 74.3362C40.2706 72.8271 38.0723 71.4196 35.1557 70.3676C32.5294 69.4245 29.3299 68.7715 25.4121 68.6119C24.7737 68.5829 24.1134 68.5684 23.4315 68.5684C20.631 68.5684 18.1715 68.3507 16.024 67.9662C1.06392 65.3035 0.853516 54.7183 0.853516 54.7183V51.0255C0.853516 51.0255 1.06392 61.5454 15.8644 64.2516C18.0554 64.6506 20.5584 64.8827 23.4315 64.8827C24.0409 64.8827 24.6358 64.8973 25.2162 64.9118C29.221 65.0641 32.4859 65.7243 35.1557 66.682C38.0723 67.734 40.2706 69.1415 41.932 70.6506C46.5681 74.8658 46.9961 79.8501 46.9961 79.8501C46.9961 79.8501 48.2585 64.8827 70.5607 64.8827C92.863 64.8827 93.1387 51.0255 93.1387 51.0255Z" fill="white"/>
<path d="M16.7568 57.1124C16.4666 58.2877 16.2489 59.4776 16.1038 60.6964C1.06391 58.0556 0.853516 47.4268 0.853516 47.4268V43.7412C0.853516 43.7412 1.07118 54.6747 16.7568 57.1124Z" fill="white"/>
<path d="M93.1382 43.7412V47.4268C93.1382 47.4268 92.8624 61.2841 70.5602 61.2841C48.2579 61.2841 46.9956 76.2587 46.9956 76.2587C46.9956 76.2587 45.8057 62.1547 25.3535 61.3204C25.4551 60.0797 25.6147 58.8536 25.8251 57.6565C45.8275 58.6795 46.9956 72.5658 46.9956 72.5658C46.9956 72.5658 48.2579 57.5912 70.5602 57.5912C92.8624 57.5912 93.1382 43.7412 93.1382 43.7412Z" fill="white"/>
<path d="M69.8352 54.0002C48.2295 54.3194 46.9961 68.9675 46.9961 68.9675C46.9961 68.9675 46.5681 63.976 41.932 59.7608C40.2706 58.2517 38.0723 56.8442 35.1557 55.7922C32.8123 54.9506 30.0046 54.3412 26.6382 54.1018C25.6225 54.0293 24.556 53.993 23.4315 53.993C21.371 53.993 19.4992 53.8769 17.7942 53.6592C1.07843 51.548 0.853516 40.1357 0.853516 40.1357V36.4501C0.853516 36.4501 1.09294 48.5444 19.3178 50.1333C20.5947 50.2421 21.9659 50.3001 23.4315 50.3001C25.0058 50.3001 26.4786 50.3727 27.8426 50.5105C30.6793 50.8007 33.0953 51.3594 35.1557 52.0994C38.0723 53.1514 40.2706 54.5589 41.932 56.0679C46.5681 60.2832 46.9961 65.2747 46.9961 65.2747C46.9961 65.2747 48.1859 51.1925 68.5946 50.3437C69.0735 51.519 69.487 52.7378 69.8352 54.0002Z" fill="white"/>
<path d="M93.1393 36.4501V40.1357C93.1393 40.1357 92.9289 50.4235 78.6145 53.2675C78.1937 52.0486 77.5625 50.7789 77.0547 49.8503C92.9144 47.4634 93.1393 36.4501 93.1393 36.4501Z" fill="white"/>
<path d="M23.4315 43.0157C23.6854 43.0157 23.9321 43.0157 24.1787 43.023C23.1485 44.1693 22.1981 45.3882 21.342 46.6651C1.11469 45.8235 0.853516 32.8513 0.853516 32.8513V29.1584C0.853516 29.1584 1.12921 43.0157 23.4315 43.0157Z" fill="white"/>
<path d="M66.9632 46.8392C48.1217 48.3555 46.9971 61.6759 46.9971 61.6759C46.9971 61.6759 45.9742 49.5018 29.418 47.1076C30.0419 45.9396 30.7239 44.8295 31.4639 43.7848C46.054 46.8392 46.9971 57.9903 46.9971 57.9903C46.9971 57.9903 48.0346 45.7146 64.7795 43.393C65.5703 44.4668 66.2958 45.6131 66.9632 46.8392Z" fill="white"/>
<path d="M93.1383 29.1584V32.8513C93.1383 32.8513 92.8989 44.7932 75.015 46.4982C74.1662 45.2576 73.2375 44.0822 72.2363 42.9867C92.8772 42.312 93.1383 29.1584 93.1383 29.1584Z" fill="white"/>
<path d="M62.1085 40.2734C60.4616 40.6434 58.9888 41.1222 57.6829 41.6663C54.6503 42.936 52.4665 44.6119 50.9139 46.3241C47.3444 50.2492 46.9961 54.3846 46.9961 54.3846C46.9961 54.3846 46.5681 49.3931 41.932 45.1778C40.2706 43.6688 38.0723 42.2613 35.1557 41.2093C34.7495 41.0642 34.3359 40.9263 33.9079 40.7957C32.1086 40.2516 30.0699 39.8453 27.741 39.6132C26.3988 39.4826 24.9695 39.41 23.4315 39.41C1.12921 39.41 0.853516 25.56 0.853516 25.56V21.8671C0.853516 21.8671 1.12921 35.7244 23.4315 35.7244C26.7543 35.7244 29.6056 36.0581 32.0578 36.624C33.2477 36.8925 34.3432 37.2262 35.3589 37.5962C35.8595 37.7849 36.3383 37.9735 36.7954 38.1766C38.9139 39.1271 40.5971 40.2734 41.932 41.485C46.5681 45.7075 46.9961 50.6917 46.9961 50.6917C46.9961 50.6917 47.3444 46.5563 50.9139 42.6313C52.452 40.9408 54.5922 39.2867 57.5596 38.0243C57.9659 37.8502 58.3867 37.6833 58.822 37.5309C59.9755 38.3217 61.0783 39.2359 62.1085 40.2734Z" fill="white"/>
<path d="M93.1386 21.8671V25.56C93.1386 25.56 92.8556 39.41 70.5606 39.41C69.8496 39.41 69.1676 39.4245 68.5001 39.4608C67.2232 38.4233 65.8738 37.4874 64.4591 36.6603C64.2269 36.5225 63.9875 36.3919 63.748 36.2613C65.765 35.9203 68.0286 35.7244 70.5606 35.7244C92.8556 35.7244 93.1386 21.8671 93.1386 21.8671Z" fill="white"/>
<path d="M40.6769 33.1703C39.2477 33.5113 37.8692 33.9466 36.527 34.4689C36.5125 34.4544 36.4907 34.4472 36.4689 34.4399C33.2186 33.0469 28.9744 32.1255 23.4315 32.1255C1.12921 32.1255 0.853516 18.2682 0.853516 18.2682V14.5754C0.853516 14.5754 1.12921 28.4327 23.4315 28.4327C30.2078 28.4327 35.0324 29.8111 38.4713 31.7337C39.2767 32.1836 40.0094 32.6624 40.6769 33.1703Z" fill="white"/>
<path d="M51.7477 34.4909C52.9448 34.7303 54.1129 35.0931 55.2447 35.5792C53.4092 36.6384 51.9799 37.85 50.8699 39.0834C47.3439 42.9939 46.9956 47.0931 46.9956 47.0931C46.9956 47.0931 46.5966 42.3264 42.2363 38.1765C41.5398 37.509 40.7417 36.8561 39.8203 36.2466C40.7707 35.7533 41.7574 35.3325 42.7659 35.0133C43.1214 35.3833 43.4479 35.7605 43.7453 36.1305C46.6982 39.8016 46.9956 43.4074 46.9956 43.4074C46.9956 43.4074 47.2713 40.1862 49.7889 36.7327C50.333 35.9782 50.9787 35.2237 51.7477 34.4909Z" fill="white"/>
<path d="M93.147 14.5754V18.2682C93.147 18.2682 92.8568 32.1255 70.5618 32.1255C65.6356 32.1255 61.7396 32.8583 58.6489 33.9974C57.1035 33.4677 55.5074 33.0469 53.875 32.7567C54.1652 32.5536 54.4627 32.3577 54.7819 32.1618C58.2644 30.0215 63.2994 28.4327 70.5618 28.4327C92.8568 28.4327 93.147 14.5754 93.147 14.5754Z" fill="white"/>
<path d="M45.8933 32.3505C45.1896 32.4086 44.4931 32.4811 43.7893 32.5827C40.7494 28.752 34.8438 24.8342 23.4315 24.8342C1.12921 24.8342 0.853516 10.9842 0.853516 10.9842V7.29132C0.853516 7.29132 1.12921 21.1486 23.4315 21.1486C38.4351 21.1486 43.9127 27.9176 45.8933 32.3505Z" fill="white"/>
<path d="M49.0924 34.1571H49.0997C47.2206 37.197 46.9957 39.8088 46.9957 39.8088C46.9957 39.8088 46.7853 37.3566 45.0586 34.4328C45.5665 34.3312 46.0671 34.2587 46.5822 34.2151C46.9304 35.3687 46.9957 36.116 46.9957 36.116C46.9957 36.116 47.061 35.3469 47.4238 34.1571C47.6995 34.1426 47.9679 34.1353 48.2436 34.1353C48.5193 34.1353 48.8095 34.1426 49.0924 34.1571Z" fill="white"/>
<path d="M93.1389 7.29132V10.9842C93.1389 10.9842 92.8632 24.8342 70.5609 24.8342C59.3953 24.8342 53.5041 28.5851 50.4062 32.336H50.3989C49.6879 32.2852 48.9842 32.2635 48.2732 32.2635H48.1426C50.1522 27.8306 55.6589 21.1486 70.5609 21.1486C92.8632 21.1486 93.1389 7.29132 93.1389 7.29132Z" fill="white"/>
<path d="M93.1387 0V3.69286C93.1387 3.69286 92.863 17.5429 70.5607 17.5429C49.8909 17.5429 47.2936 30.399 47.0251 32.2853C47.0034 32.2926 46.9889 32.2926 46.9671 32.2926C46.7059 30.4353 44.1231 17.5429 23.4315 17.5429C1.12921 17.5429 0.853516 3.69286 0.853516 3.69286V0C0.853516 0 1.12921 13.8573 23.4315 13.8573C45.7337 13.8573 46.9961 28.8319 46.9961 28.8319C46.9961 28.8319 48.2585 13.8573 70.5607 13.8573C92.863 13.8573 93.1387 0 93.1387 0Z" fill="white"/>
</svg>
