<svg width="635" height="620" viewBox="0 0 635 620" fill="none" xmlns="http://www.w3.org/2000/svg">
<path d="M409.039 297.308C343.605 297.308 339.901 341.243 339.901 341.243C339.901 341.243 336.197 297.308 270.763 297.308C205.328 297.308 204.52 256.672 204.52 256.672V267.507C204.52 267.507 205.35 308.143 270.763 308.143C336.176 308.143 339.901 352.078 339.901 352.078C339.901 352.078 343.605 308.143 409.039 308.143C474.474 308.143 475.283 267.507 475.283 267.507V256.672C475.283 256.672 474.453 297.308 409.039 297.308Z" fill="white"/>
<path d="M409.039 275.914C343.605 275.914 339.901 319.85 339.901 319.85C339.901 319.85 336.197 275.914 270.763 275.914C205.328 275.914 204.52 235.279 204.52 235.279V246.113C204.52 246.113 205.35 286.749 270.763 286.749C336.176 286.749 339.901 330.684 339.901 330.684C339.901 330.684 343.605 286.749 409.039 286.749C474.474 286.749 475.283 246.113 475.283 246.113V235.279C475.283 235.279 474.453 275.914 409.039 275.914Z" fill="white"/>
<path d="M287.558 266.443C282.47 265.74 276.893 265.357 270.763 265.357C205.328 265.357 204.52 224.7 204.52 224.7V213.886C204.52 213.886 205.328 254.522 270.763 254.522C271.912 254.522 273.062 254.544 274.169 254.565C278.234 258.929 282.726 262.909 287.558 266.443Z" fill="white"/>
<path d="M330.854 277.702C319.253 274.765 308.695 267.889 300.031 258.161C315.528 262.546 325.043 270.209 330.854 277.702Z" fill="white"/>
<path d="M344.414 284.77C347.16 284.77 349.885 284.621 352.588 284.366C341.008 296.244 339.901 309.292 339.901 309.292C339.901 309.292 338.731 295.307 325.938 283.11C329.003 283.706 332.089 284.132 335.197 284.408C339.369 292.199 339.901 298.457 339.901 298.457C339.901 298.457 340.412 292.391 344.414 284.77Z" fill="white"/>
<path d="M388.966 256.118C377.876 269.422 363.529 277.788 347.926 279.107C354.588 269.805 366.786 259.886 388.966 256.118Z" fill="white"/>
<path d="M475.284 213.886V224.7C475.284 224.7 474.475 265.357 409.04 265.357C406.23 265.357 403.548 265.442 400.973 265.591C405.379 262.27 409.508 258.545 413.255 254.458C474.517 252.755 475.284 213.886 475.284 213.886Z" fill="white"/>
<path d="M402.632 233.278C400.993 237.216 399.141 240.963 397.076 244.496C386.71 245.454 378.217 247.647 371.256 250.563C362.358 254.309 355.951 259.227 351.396 264.25C346.585 269.529 343.754 274.957 342.136 279.278C340.582 279.236 339.05 279.129 337.538 278.938C335.516 273.765 331.791 267.017 325.043 260.887C320.169 256.459 313.719 252.33 305.162 249.243C300.904 247.732 296.136 246.455 290.772 245.539C284.854 244.539 278.213 243.964 270.763 243.964C268.975 243.964 267.229 243.964 265.548 243.879C205.286 241.772 204.52 203.307 204.52 203.307V192.494C204.52 192.494 205.222 228.021 258.821 232.64C262.546 232.959 266.527 233.129 270.763 233.129C275.786 233.129 280.469 233.385 284.791 233.874C292.645 234.747 299.372 236.344 305.162 238.408C313.719 241.495 320.169 245.625 325.043 250.052C338.645 262.42 339.901 277.065 339.901 277.065C339.901 277.065 340.923 264.931 351.396 253.415C355.164 249.243 360.208 245.156 366.892 241.75C368.276 241.048 369.723 240.367 371.235 239.75C379.409 236.301 389.669 233.874 402.611 233.278H402.632Z" fill="white"/>
<path d="M475.285 192.494V203.307C475.285 203.307 474.561 238.366 422.09 243.368C424.623 239.664 426.901 235.769 428.88 231.682C474.625 224.445 475.285 192.494 475.285 192.494Z" fill="white"/>
<path d="M250.775 210.267C251.648 214.12 252.733 217.888 254.074 221.57C205.179 215.334 204.52 181.935 204.52 181.935V171.1C204.52 171.1 205.158 202.987 250.775 210.267Z" fill="white"/>
<path d="M475.282 171.1V181.935C475.282 181.935 474.473 222.571 409.038 222.571C343.604 222.571 339.9 266.506 339.9 266.506C339.9 266.506 336.579 227.19 280.83 222.954C279.745 219.399 278.829 215.717 278.105 211.949C336.473 215.099 339.9 255.671 339.9 255.671C339.9 255.671 343.604 211.757 409.038 211.757C474.473 211.757 475.282 171.1 475.282 171.1Z" fill="white"/>
<path d="M475.283 149.708V160.543C475.283 160.543 474.453 201.178 409.039 201.178C343.626 201.178 339.901 245.114 339.901 245.114C339.901 245.114 338.645 230.468 325.043 218.101C320.169 213.673 313.719 209.544 305.162 206.457C297.456 203.69 288.069 201.774 276.574 201.306C274.701 201.221 272.764 201.178 270.763 201.178C262.546 201.178 255.33 200.54 249.029 199.412C205.137 191.599 204.52 160.543 204.52 160.543V149.708C204.52 149.708 205.137 180.573 248.561 188.513C254.99 189.684 262.333 190.365 270.763 190.365C272.551 190.365 274.296 190.407 275.999 190.45C287.749 190.897 297.328 192.834 305.162 195.644C313.719 198.73 320.169 202.86 325.043 207.288C338.645 219.655 339.901 234.279 339.901 234.279C339.901 234.279 343.605 190.365 409.039 190.365C474.474 190.365 475.283 149.708 475.283 149.708Z" fill="white"/>
<path d="M251.179 167.567C250.328 171.015 249.689 174.506 249.264 178.082C205.137 170.334 204.52 139.149 204.52 139.149V128.336C204.52 128.336 205.158 160.415 251.179 167.567Z" fill="white"/>
<path d="M475.281 128.336V139.149C475.281 139.149 474.473 179.806 409.038 179.806C343.604 179.806 339.9 223.742 339.9 223.742C339.9 223.742 336.409 182.361 276.402 179.913C276.7 176.273 277.169 172.676 277.786 169.163C336.473 172.165 339.9 212.907 339.9 212.907C339.9 212.907 343.604 168.972 409.038 168.972C474.473 168.972 475.281 128.336 475.281 128.336Z" fill="white"/>
<path d="M406.911 158.436C343.52 159.372 339.901 202.35 339.901 202.35C339.901 202.35 338.645 187.705 325.043 175.337C320.169 170.91 313.719 166.78 305.162 163.693C298.286 161.224 290.048 159.436 280.172 158.734C277.191 158.521 274.062 158.414 270.763 158.414C264.718 158.414 259.226 158.074 254.223 157.435C205.179 151.241 204.52 117.757 204.52 117.757V106.944C204.52 106.944 205.222 142.428 258.694 147.09C262.44 147.409 266.463 147.58 270.763 147.58C275.382 147.58 279.703 147.793 283.705 148.197C292.028 149.048 299.116 150.687 305.162 152.859C313.719 155.945 320.169 160.075 325.043 164.502C338.645 176.87 339.901 191.515 339.901 191.515C339.901 191.515 343.392 150.198 403.271 147.707C404.676 151.156 405.889 154.732 406.911 158.436Z" fill="white"/>
<path d="M475.282 106.944V117.757C475.282 117.757 474.665 147.942 432.666 156.286C431.432 152.71 429.58 148.985 428.09 146.26C474.622 139.257 475.282 106.944 475.282 106.944Z" fill="white"/>
<path d="M270.763 126.207C271.508 126.207 272.232 126.207 272.955 126.228C269.933 129.592 267.144 133.168 264.632 136.914C205.286 134.445 204.52 96.3848 204.52 96.3848V85.55C204.52 85.55 205.328 126.207 270.763 126.207Z" fill="white"/>
<path d="M398.481 137.426C343.201 141.874 339.901 180.956 339.901 180.956C339.901 180.956 336.9 145.238 288.324 138.213C290.155 134.786 292.156 131.529 294.327 128.464C337.134 137.426 339.901 170.143 339.901 170.143C339.901 170.143 342.945 134.126 392.074 127.314C394.395 130.465 396.523 133.828 398.481 137.426Z" fill="white"/>
<path d="M475.283 85.55V96.3848C475.283 96.3848 474.581 131.422 422.11 136.425C419.619 132.785 416.895 129.336 413.957 126.122C474.517 124.142 475.283 85.55 475.283 85.55Z" fill="white"/>
<path d="M384.241 118.162C379.409 119.247 375.088 120.652 371.256 122.249C362.358 125.974 355.951 130.891 351.396 135.914C340.923 147.43 339.901 159.564 339.901 159.564C339.901 159.564 338.645 144.919 325.043 132.551C320.169 128.124 313.719 123.994 305.162 120.908C303.97 120.482 302.756 120.077 301.5 119.694C296.221 118.098 290.24 116.906 283.407 116.225C279.469 115.841 275.276 115.629 270.763 115.629C205.328 115.629 204.52 74.9927 204.52 74.9927V64.158C204.52 64.158 205.328 104.815 270.763 104.815C280.512 104.815 288.878 105.794 296.072 107.455C299.563 108.242 302.778 109.221 305.758 110.307C307.227 110.86 308.631 111.414 309.973 112.01C316.188 114.798 321.127 118.162 325.043 121.716C338.645 134.105 339.901 148.729 339.901 148.729C339.901 148.729 340.923 136.596 351.396 125.08C355.909 120.12 362.188 115.267 370.894 111.563C372.086 111.052 373.321 110.562 374.598 110.115C377.983 112.436 381.218 115.118 384.241 118.162Z" fill="white"/>
<path d="M475.282 64.158V74.9927C475.282 74.9927 474.452 115.629 409.039 115.629C406.953 115.629 404.952 115.671 402.993 115.778C399.247 112.734 395.288 109.988 391.137 107.561C390.456 107.157 389.753 106.773 389.051 106.39C394.968 105.39 401.61 104.815 409.039 104.815C474.452 104.815 475.282 64.158 475.282 64.158Z" fill="white"/>
<path d="M321.361 97.3213C317.167 98.3217 313.123 99.5989 309.185 101.132C309.142 101.089 309.078 101.068 309.015 101.046C299.478 96.9594 287.026 94.256 270.763 94.256C205.328 94.256 204.52 53.5989 204.52 53.5989V42.7642C204.52 42.7642 205.328 83.4212 270.763 83.4212C290.644 83.4212 304.8 87.4656 314.89 93.1065C317.252 94.4263 319.402 95.8312 321.361 97.3213Z" fill="white"/>
<path d="M353.843 101.196C357.355 101.898 360.782 102.963 364.103 104.389C358.717 107.497 354.524 111.052 351.267 114.67C340.922 126.144 339.9 138.171 339.9 138.171C339.9 138.171 338.729 124.185 325.936 112.01C323.893 110.051 321.551 108.135 318.848 106.347C321.636 104.9 324.531 103.665 327.49 102.729C328.533 103.814 329.491 104.921 330.364 106.007C339.027 116.778 339.9 127.357 339.9 127.357C339.9 127.357 340.709 117.906 348.095 107.774C349.692 105.56 351.586 103.346 353.843 101.196Z" fill="white"/>
<path d="M475.305 42.7642V53.5989C475.305 53.5989 474.454 94.256 409.041 94.256C394.587 94.256 383.157 96.406 374.089 99.748C369.555 98.194 364.871 96.9594 360.082 96.1079C360.933 95.5119 361.806 94.9372 362.743 94.3624C372.96 88.0829 387.733 83.4212 409.041 83.4212C474.454 83.4212 475.305 42.7642 475.305 42.7642Z" fill="white"/>
<path d="M336.666 94.9156C334.601 95.0859 332.557 95.2988 330.493 95.5968C321.574 84.3576 304.246 72.8629 270.763 72.8629C205.328 72.8629 204.52 32.2271 204.52 32.2271V21.3923C204.52 21.3923 205.328 62.0494 270.763 62.0494C314.783 62.0494 330.854 81.9096 336.666 94.9156Z" fill="white"/>
<path d="M346.054 100.216H346.075C340.562 109.135 339.902 116.798 339.902 116.798C339.902 116.798 339.285 109.604 334.219 101.025C335.709 100.727 337.178 100.514 338.689 100.387C339.711 103.771 339.902 105.964 339.902 105.964C339.902 105.964 340.094 103.707 341.158 100.216C341.967 100.174 342.755 100.152 343.564 100.152C344.372 100.152 345.224 100.174 346.054 100.216Z" fill="white"/>
<path d="M475.284 21.3923V32.2271C475.284 32.2271 474.475 72.8629 409.041 72.8629C376.281 72.8629 358.996 83.868 349.907 94.8731H349.886C347.8 94.7241 345.735 94.6602 343.649 94.6602H343.266C349.162 81.6542 365.318 62.0494 409.041 62.0494C474.475 62.0494 475.284 21.3923 475.284 21.3923Z" fill="white"/>
<path d="M475.283 0V10.8348C475.283 10.8348 474.474 51.4706 409.039 51.4706C348.394 51.4706 340.774 89.1901 339.986 94.7246C339.923 94.7459 339.88 94.7459 339.816 94.7459C339.05 89.2966 331.472 51.4706 270.763 51.4706C205.328 51.4706 204.52 10.8348 204.52 10.8348V0C204.52 0 205.328 40.6571 270.763 40.6571C336.197 40.6571 339.901 84.5922 339.901 84.5922C339.901 84.5922 343.605 40.6571 409.039 40.6571C474.474 40.6571 475.283 0 475.283 0Z" fill="white"/>
<path d="M121.247 483.969L121.098 484.693C115.096 513.728 95.0652 534.014 72.3526 534.014C44.4886 534.014 21.8186 503.872 21.8186 466.855C21.8186 429.838 44.4886 399.675 72.3526 399.675C95.0439 399.675 115.096 419.961 121.098 448.996L121.247 449.72L139.298 439.289L139.128 438.863C127.825 411.894 101.643 394.46 72.4164 394.46C67.7547 394.46 63.0717 394.907 58.4738 395.822C24.5858 402.464 0 432.329 0 466.855C0 501.382 24.5858 531.247 58.4738 537.867C63.0504 538.761 67.7547 539.229 72.4164 539.229C101.643 539.229 127.825 521.795 139.128 494.825L139.298 494.4L121.247 483.969Z" fill="white"/>
<path d="M156.731 538.973C156.412 539.186 156.092 539.377 155.752 539.548H227.168L229.956 517.751C228.381 520.794 205.562 534.247 200.091 534.247H181.466V481.627H205.115C208.436 482.415 216.908 484.629 218.462 487.673V470.282C216.886 473.326 208.436 475.539 205.115 476.327H181.466V423.707H198.921C204.413 423.707 227.232 437.16 228.785 440.204L225.976 418.407H155.73C156.071 418.577 156.39 418.769 156.71 418.981C159.988 421.11 161.776 424.92 161.776 428.837V529.117C161.776 533.034 159.988 536.844 156.71 538.973H156.731Z" fill="white"/>
<path d="M298.991 418.427H250.969C251.309 418.598 251.629 418.789 251.948 419.002C255.226 421.131 257.014 424.941 257.014 428.858V529.138C257.014 533.055 255.226 536.865 251.948 538.994C251.629 539.207 251.309 539.398 250.969 539.569H282.728C282.387 539.398 282.068 539.207 281.749 538.994C278.471 536.865 276.683 533.055 276.683 529.138V484.117H298.991C346.736 484.011 345.97 418.534 298.991 418.427ZM298.884 478.817H276.683V423.728H298.884C318.489 423.728 318.191 478.817 298.884 478.817Z" fill="white"/>
<path d="M604.664 534.247H586.038V481.627H609.687C613.008 482.415 621.48 484.629 623.034 487.673V470.282C621.459 473.326 613.008 475.539 609.687 476.327H586.038V423.707H603.493C608.985 423.707 631.804 437.16 633.379 440.204L630.569 418.407H560.324C560.665 418.577 560.984 418.769 561.303 418.981C564.582 421.11 566.37 424.92 566.37 428.837V529.117C566.37 533.034 564.582 536.844 561.303 538.973C560.984 539.186 560.665 539.377 560.324 539.548H631.74L634.55 517.751C632.975 520.794 610.156 534.247 604.685 534.247H604.664Z" fill="white"/>
<path d="M416.407 534.418C416.194 533.992 416.002 533.545 415.811 533.056L415.47 531.842L381.667 418.449H361.999L361.807 419.024L364.191 427.283L332.772 531.842V531.885L332.389 533.098C332.24 533.566 332.006 533.992 331.814 534.439H323.683L320.895 556.237C322.448 553.171 337.519 539.74 343.011 539.74H403.635C409.127 539.74 424.176 553.171 425.751 556.237L422.963 534.439H416.428L416.407 534.418ZM338.051 534.418C338.051 533.652 338.136 532.821 338.286 531.842L366.873 436.671L376.452 469.877L394.162 529.394L394.886 531.842L395.652 534.439H338.03L338.051 534.418Z" fill="white"/>
<path d="M530.883 534.268V428.858C530.883 424.941 532.671 421.131 535.949 419.002C536.269 418.789 536.609 418.598 536.95 418.427H505.191C505.531 418.598 505.872 418.789 506.191 419.002C509.469 421.131 511.257 424.941 511.257 428.858V534.268H464.044V428.858C464.044 424.941 465.832 421.131 469.11 419.002C469.429 418.789 469.749 418.598 470.089 418.427H438.309C438.649 418.598 438.969 418.789 439.288 419.002C442.566 421.131 444.354 424.941 444.354 428.858V529.5C444.354 533.268 442.545 536.844 439.394 538.93C439.032 539.164 438.692 539.377 438.309 539.569H521.241C526.711 539.569 541.782 553.022 543.357 556.066L540.569 534.268H530.926H530.883Z" fill="white"/>
<path d="M144.195 600.533H141.364L136.383 608.6H132.829V600.533H130.232V608.6H126.613L121.653 600.533H118.822L124.484 609.452L118.375 619.116H121.462L126.677 610.942H130.232V619.116H132.829V610.942H136.341L141.556 619.116H144.642L138.533 609.494L144.195 600.533Z" fill="white"/>
<path d="M158.905 614.859V600.533H156.266V619.116H158.714L169.719 604.811V619.116H172.316V600.533H169.868L158.905 614.859Z" fill="white"/>
<path d="M188.493 608.366C188.429 610.367 188.28 611.963 188.046 613.198C187.811 614.411 187.471 615.326 187.003 615.944C186.534 616.561 185.938 616.859 185.172 616.859C184.895 616.859 184.597 616.816 184.32 616.753L184.129 619.115C184.704 619.264 185.257 619.328 185.811 619.328C187.003 619.328 187.96 618.924 188.684 618.115C189.387 617.306 189.898 616.114 190.238 614.517C190.557 612.921 190.77 610.856 190.855 608.28L191.047 602.852H199.264V619.115H201.861V600.553H188.791L188.493 608.387V608.366Z" fill="white"/>
<path d="M229.875 601.554C228.364 600.724 226.703 600.319 224.83 600.319C222.957 600.319 221.275 600.724 219.764 601.554C218.253 602.384 217.082 603.512 216.23 604.96C215.379 606.407 214.953 608.025 214.953 609.813C214.953 611.601 215.379 613.219 216.23 614.666C217.082 616.114 218.274 617.242 219.764 618.072C221.275 618.902 222.957 619.307 224.83 619.307C226.703 619.307 228.364 618.902 229.875 618.072C231.386 617.242 232.557 616.114 233.408 614.688C234.26 613.24 234.686 611.622 234.686 609.813C234.686 608.004 234.26 606.386 233.408 604.938C232.557 603.491 231.386 602.363 229.875 601.533V601.554ZM231.088 613.453C230.471 614.539 229.598 615.39 228.513 616.007C227.427 616.625 226.192 616.944 224.83 616.944C223.468 616.944 222.233 616.625 221.126 616.007C220.019 615.39 219.147 614.539 218.529 613.453C217.912 612.367 217.593 611.154 217.593 609.813C217.593 608.472 217.912 607.259 218.529 606.173C219.147 605.087 220.019 604.236 221.126 603.619C222.233 603.001 223.468 602.682 224.83 602.682C226.192 602.682 227.406 603.001 228.513 603.619C229.598 604.236 230.45 605.087 231.088 606.173C231.706 607.259 232.025 608.472 232.025 609.813C232.025 611.154 231.706 612.367 231.088 613.453Z" fill="white"/>
<path d="M250.415 614.859V600.533H247.797V619.116H250.245L261.25 604.811V619.116H263.847V600.533H261.399L250.415 614.859Z" fill="white"/>
<path d="M309.632 600.533H306.78L300.947 608.6H297.031V600.533H294.434V619.116H297.031V610.942H300.905L306.907 619.116H309.93L302.991 609.537L309.632 600.533Z" fill="white"/>
<path d="M334.836 601.554C333.325 600.724 331.664 600.319 329.791 600.319C327.918 600.319 326.236 600.724 324.725 601.554C323.213 602.384 322.043 603.512 321.191 604.96C320.34 606.407 319.914 608.025 319.914 609.813C319.914 611.601 320.34 613.219 321.191 614.666C322.043 616.114 323.235 617.242 324.725 618.072C326.236 618.902 327.918 619.307 329.791 619.307C331.664 619.307 333.325 618.902 334.836 618.072C336.347 617.242 337.518 616.114 338.369 614.688C339.221 613.24 339.647 611.622 339.647 609.813C339.647 608.004 339.221 606.386 338.369 604.938C337.518 603.491 336.347 602.363 334.836 601.533V601.554ZM336.049 613.453C335.432 614.539 334.559 615.39 333.474 616.007C332.388 616.625 331.153 616.944 329.791 616.944C328.429 616.944 327.194 616.625 326.087 616.007C324.98 615.39 324.108 614.539 323.49 613.453C322.873 612.367 322.554 611.154 322.554 609.813C322.554 608.472 322.873 607.259 323.49 606.173C324.108 605.087 324.98 604.236 326.087 603.619C327.194 603.001 328.429 602.682 329.791 602.682C331.153 602.682 332.367 603.001 333.474 603.619C334.559 604.236 335.411 605.087 336.049 606.173C336.667 607.259 336.986 608.472 336.986 609.813C336.986 611.154 336.667 612.367 336.049 613.453Z" fill="white"/>
<path d="M370.343 600.533L362.701 613.582L354.953 600.533H352.781V619.116H355.314V605.663L362.041 616.86H363.254L369.959 605.578L369.981 619.116H372.535L372.514 600.533H370.343Z" fill="white"/>
<path d="M387.16 619.116H389.778V602.853H400.549V619.116H403.146V600.533H387.16V619.116Z" fill="white"/>
<path d="M419.321 608.366C419.257 610.367 419.108 611.963 418.874 613.198C418.64 614.411 418.299 615.326 417.831 615.944C417.362 616.561 416.766 616.859 416 616.859C415.723 616.859 415.425 616.816 415.149 616.753L414.957 619.115C415.532 619.264 416.085 619.328 416.639 619.328C417.831 619.328 418.789 618.924 419.512 618.115C420.215 617.306 420.726 616.114 421.066 614.517C421.386 612.921 421.598 610.856 421.683 608.28L421.875 602.852H430.092V619.115H432.689V600.553H419.619L419.321 608.387V608.366Z" fill="white"/>
<path d="M449.954 610.814H459.256V608.558H449.954V602.853H460.405V600.533H447.293V619.116H460.767V616.796H449.954V610.814Z" fill="white"/>
<path d="M488.972 600.533H486.141L480.308 608.6H476.37V600.533H473.773V619.116H476.37V610.942H480.245L486.269 619.116H489.291L482.331 609.537L488.972 600.533Z" fill="white"/>
<path d="M505.491 603.619C506.598 603.001 507.854 602.682 509.237 602.682C511.323 602.682 513.069 603.406 514.452 604.875L516.177 603.214C515.325 602.256 514.303 601.533 513.09 601.043C511.898 600.554 510.557 600.319 509.11 600.319C507.258 600.319 505.576 600.724 504.065 601.554C502.553 602.384 501.383 603.512 500.531 604.96C499.68 606.407 499.254 608.025 499.254 609.834C499.254 611.644 499.68 613.262 500.531 614.709C501.383 616.156 502.553 617.285 504.043 618.094C505.533 618.924 507.215 619.328 509.067 619.328C510.514 619.328 511.856 619.073 513.069 618.583C514.282 618.094 515.304 617.37 516.155 616.412L514.431 614.73C513.026 616.22 511.281 616.965 509.216 616.965C507.832 616.965 506.598 616.646 505.47 616.029C504.363 615.411 503.49 614.56 502.851 613.474C502.213 612.389 501.915 611.175 501.915 609.834C501.915 608.493 502.234 607.28 502.851 606.194C503.469 605.109 504.341 604.257 505.47 603.64L505.491 603.619Z" fill="white"/>
<path d="M256.749 594.977L253.691 598.989L255.774 600.576L258.832 596.564L256.749 594.977Z" fill="white"/>
</svg>
