<svg width="233" height="232" viewBox="0 0 233 232" fill="none" xmlns="http://www.w3.org/2000/svg">
<g clip-path="url(#clip0_2665_4561)">
<rect width="233" height="232" fill="white"/>
<path d="M15.5111 170.267C1.14483 143.589 -2.0349 112.295 6.67139 83.2722C15.3777 54.2489 35.2569 29.8729 61.9357 15.5067C88.6145 1.14039 119.908 -2.03935 148.931 6.66695C177.954 15.3732 202.33 35.2524 216.696 61.9312" stroke="#8B8787" stroke-width="0.5" stroke-dasharray="4 4"/>
<path d="M15.5062 170.267C29.8724 196.946 54.2484 216.825 83.2717 225.532C112.295 234.238 143.588 231.058 170.267 216.692C196.946 202.326 216.825 177.95 225.531 148.927C234.237 119.903 231.058 88.6102 216.691 61.9313" stroke="#263452" stroke-width="0.5" stroke-dasharray="4 4"/>
<circle cx="115.142" cy="111.142" r="37.3898" transform="rotate(-42.2259 115.142 111.142)" stroke="#263452" stroke-width="2"/>
<path d="M160.926 148.488L170.334 158.855L168.868 160.185L164.836 155.742L162.155 158.175L160.945 156.842L163.626 154.409L159.459 149.818L160.926 148.488ZM152.228 156.165C152.979 155.484 153.791 154.981 154.666 154.655C155.55 154.339 156.443 154.203 157.348 154.247C158.261 154.3 159.142 154.527 159.991 154.927C160.83 155.336 161.599 155.925 162.298 156.695C162.997 157.465 163.509 158.288 163.835 159.163C164.151 160.046 164.287 160.94 164.243 161.844C164.208 162.758 163.986 163.635 163.577 164.474C163.178 165.323 162.602 166.088 161.852 166.769C161.102 167.45 160.285 167.948 159.401 168.264C158.516 168.599 157.617 168.739 156.705 168.686C155.8 168.642 154.929 168.416 154.09 168.007C153.241 167.607 152.467 167.022 151.768 166.252C151.069 165.482 150.561 164.655 150.246 163.771C149.92 162.896 149.774 162.002 149.809 161.088C149.853 160.184 150.08 159.303 150.489 158.445C150.898 157.606 151.478 156.846 152.228 156.165ZM153.438 157.498C152.895 157.991 152.481 158.537 152.197 159.137C151.913 159.755 151.764 160.395 151.751 161.055C151.728 161.724 151.842 162.385 152.093 163.04C152.335 163.703 152.72 164.325 153.249 164.908C153.777 165.49 154.36 165.934 154.997 166.238C155.623 166.552 156.271 166.73 156.939 166.771C157.597 166.822 158.243 166.731 158.878 166.497C159.511 166.283 160.094 165.933 160.628 165.449C161.161 164.966 161.57 164.414 161.855 163.796C162.138 163.196 162.292 162.561 162.315 161.892C162.328 161.232 162.214 160.571 161.972 159.908C161.721 159.254 161.331 158.635 160.802 158.053C160.273 157.47 159.696 157.022 159.069 156.709C158.432 156.404 157.785 156.226 157.127 156.176C156.458 156.134 155.808 156.22 155.174 156.435C154.54 156.669 153.961 157.023 153.438 157.498Z" fill="#263452"/>
<path d="M150.368 149.814L135.18 142.652L144.354 134.137L150.368 149.814Z" fill="#263452"/>
<path d="M79.4681 72.4436L94.6555 79.606L85.4821 88.1212L79.4681 72.4436Z" fill="#263452"/>
<path d="M77.2528 66.8456C76.4629 67.5624 75.6158 68.0972 74.7114 68.4498C73.808 68.7836 72.8944 68.9375 71.9706 68.9117C71.0477 68.8669 70.1568 68.6491 69.2979 68.2583C68.439 67.8674 67.6601 67.2869 66.9612 66.5168C66.2622 65.7467 65.7598 64.9153 65.4538 64.0226C65.1478 63.1299 65.0265 62.2226 65.0901 61.3007C65.1447 60.3688 65.3863 59.4744 65.8148 58.6173C66.2442 57.7414 66.8539 56.945 67.6438 56.2282C68.4435 55.5023 69.3045 54.973 70.2268 54.6401C71.15 54.2884 72.0905 54.1641 73.0483 54.2671L72.9324 56.0738C72.1612 56.0176 71.4391 56.1147 70.7662 56.3653C70.0844 56.606 69.462 56.9817 68.8993 57.4925C68.3167 58.0212 67.8633 58.6127 67.539 59.2672C67.2245 59.9127 67.0459 60.579 67.0032 61.266C66.9605 61.9529 67.0595 62.6374 67.3002 63.3192C67.5418 63.9822 67.9224 64.6 68.4422 65.1727C68.9619 65.7453 69.5445 66.1889 70.19 66.5034C70.8364 66.799 71.5036 66.9587 72.1915 66.9826C72.8794 67.0065 73.5598 66.8932 74.2327 66.6426C74.9154 66.3831 75.548 65.989 76.1306 65.4603C76.6934 64.9495 77.132 64.3714 77.4464 63.7259C77.7519 63.0705 77.9095 62.3513 77.9191 61.5683L79.7285 61.6277C79.7385 62.591 79.5283 63.52 79.0979 64.4147C78.6774 65.3005 78.0624 66.1108 77.2528 66.8456Z" fill="#263452"/>
<path d="M154.546 67.6258L164.913 58.217L168.959 62.6748C169.98 63.8004 170.555 64.8901 170.683 65.9441C170.812 66.9981 170.441 67.9193 169.573 68.7079C168.723 69.4785 167.794 69.7638 166.784 69.5639C165.784 69.355 164.832 68.7519 163.927 67.7547L164.613 67.618C165.662 68.7732 166.232 69.8675 166.323 70.9008C166.433 71.935 166.049 72.8508 165.171 73.6483C164.282 74.4548 163.29 74.7607 162.195 74.5661C161.119 74.3723 160.003 73.6387 158.847 72.365L154.546 67.6258ZM157.047 68.0301L159.99 71.2735C160.707 72.0634 161.388 72.5259 162.033 72.6609C162.696 72.7969 163.329 72.5916 163.931 72.045C164.534 71.4984 164.789 70.8972 164.698 70.2415C164.616 69.5957 164.217 68.8778 163.5 68.088L160.557 64.8446L157.047 68.0301ZM161.682 63.8231L164.303 66.711C164.957 67.4318 165.598 67.8498 166.225 67.9651C166.86 68.0903 167.455 67.902 168.008 67.4002C168.57 66.8895 168.82 66.3116 168.757 65.6667C168.703 65.0317 168.349 64.3538 167.695 63.633L165.074 60.745L161.682 63.8231Z" fill="#263452"/>
<path d="M76.115 146.642L83.2773 131.454L91.7926 140.627L76.115 146.642Z" fill="#263452"/>
<path d="M153.487 75.7384L146.324 90.9257L137.809 81.7524L153.487 75.7384Z" fill="#263452"/>
<path d="M74.332 155.372L72.7656 155.848C72.7089 155.071 72.523 154.33 72.2078 153.626C71.8838 152.912 71.4802 152.279 70.9973 151.727C70.5044 151.184 69.9779 150.752 69.4176 150.433C68.8483 150.103 68.2901 149.934 67.743 149.927C67.1959 149.919 66.7052 150.112 66.2707 150.507C65.7376 150.991 65.5299 151.575 65.6477 152.261C65.7566 152.936 66.156 153.654 66.846 154.414L68.9428 156.724L67.7432 157.813L65.7404 155.607C65.1401 154.945 64.5408 154.553 63.9427 154.429C63.3257 154.305 62.7754 154.462 62.2916 154.901C61.9263 155.233 61.7232 155.624 61.6825 156.075C61.6229 156.526 61.7037 157.001 61.9248 157.503C62.137 157.995 62.4626 158.482 62.9017 158.966C63.3219 159.449 63.8296 159.88 64.4249 160.258C65.0102 160.645 65.6566 160.94 66.3641 161.144L65.5798 162.721C64.6509 162.411 63.8081 161.979 63.0516 161.423C62.2763 160.866 61.627 160.24 61.1038 159.545C60.5707 158.858 60.1946 158.146 59.9755 157.408C59.7375 156.67 59.6771 155.969 59.7943 155.304C59.8926 154.639 60.2133 154.06 60.7563 153.567C61.25 153.119 61.8058 152.848 62.4239 152.756C63.032 152.672 63.6459 152.763 64.2654 153.029C64.8751 153.304 65.4532 153.743 65.9998 154.345L65.5462 154.648C64.9189 153.957 64.4903 153.257 64.2604 152.547C64.0117 151.837 63.9643 151.16 64.1182 150.516C64.2631 149.862 64.6022 149.293 65.1353 148.809C65.6389 148.352 66.2046 148.073 66.8325 147.971C67.4505 147.878 68.0945 147.933 68.7643 148.136C69.4153 148.337 70.0554 148.665 70.6846 149.121C71.3049 149.566 71.8731 150.113 72.3892 150.761C72.9052 151.409 73.3378 152.123 73.687 152.905C74.0271 153.677 74.2422 154.499 74.332 155.372Z" fill="#263452"/>
<g clip-path="url(#clip1_2665_4561)">
<path d="M193.936 42.3634C198.685 42.2694 202.458 38.3433 202.364 33.5941C202.27 28.845 198.344 25.0713 193.595 25.1653C188.846 25.2592 185.072 29.1854 185.166 33.9345C185.26 38.6837 189.186 42.4574 193.936 42.3634Z" fill="#263452"/>
<path d="M193.498 20.2671L191.157 24.0958L195.988 24.0002L193.498 20.2671Z" fill="#263452"/>
<path d="M203.434 31.1565L203.529 35.9877L207.262 33.4972L203.434 31.1565Z" fill="#263452"/>
<path d="M194.033 47.2617L196.374 43.4332L191.543 43.5288L194.033 47.2617Z" fill="#263452"/>
<path d="M184 31.5411L180.267 34.0316L184.095 36.3724L184 31.5411Z" fill="#263452"/>
<path d="M203.12 24.0314L198.757 25.0836L202.241 28.4321L203.12 24.0314Z" fill="#263452"/>
<path d="M203.496 43.1196L202.444 38.7571L199.095 42.2409L203.496 43.1196Z" fill="#263452"/>
<path d="M185.29 39.0969L184.411 43.4975L188.773 42.4455L185.29 39.0969Z" fill="#263452"/>
<path d="M188.432 25.2879L184.031 24.4092L185.083 28.7716L188.432 25.2879Z" fill="#263452"/>
</g>
<path d="M24.4326 173.153L14.9727 169L15.1799 179.329L24.4326 173.153Z" fill="#263452"/>
</g>
<defs>
<clipPath id="clip0_2665_4561">
<rect width="233" height="232" fill="white"/>
</clipPath>
<clipPath id="clip1_2665_4561">
<rect width="27" height="27" fill="white" transform="translate(180 20.5342) rotate(-1.13389)"/>
</clipPath>
</defs>
</svg>
